<svg id="visual" viewBox="0 0 900 600" width="900" height="600" xmlns="http://www.w3.org/2000/svg" xmlns:xlink="http://www.w3.org/1999/xlink" version="1.1"><path d="M0 169L75 169C150 169 300 169 450 170C600 171 750 173 825 174L900 175L900 0L825 0C750 0 600 0 450 0C300 0 150 0 75 0L0 0Z" fill="#ffffff"></path><path d="M0 241L75 240C150 239 300 237 450 237C600 237 750 239 825 240L900 241L900 173L825 172C750 171 600 169 450 168C300 167 150 167 75 167L0 167Z" fill="#968eff"></path><path d="M0 427L75 426C150 425 300 423 450 418C600 413 750 405 825 401L900 397L900 239L825 238C750 237 600 235 450 235C300 235 150 237 75 238L0 239Z" fill="#0051ff"></path><path d="M0 523L75 523C150 523 300 523 450 521C600 519 750 515 825 513L900 511L900 395L825 399C750 403 600 411 450 416C300 421 150 423 75 424L0 425Z" fill="#968eff"></path><path d="M0 601L75 601C150 601 300 601 450 601C600 601 750 601 825 601L900 601L900 509L825 511C750 513 600 517 450 519C300 521 150 521 75 521L0 521Z" fill="#ffffff"></path></svg>